<?xml version="1.0" encoding="UTF-8" standalone="no"?>
<svg xmlns="http://www.w3.org/2000/svg" xmlns:cc="http://creativecommons.org/ns#" xmlns:dc="http://purl.org/dc/elements/1.1/" xmlns:rdf="http://www.w3.org/1999/02/22-rdf-syntax-ns#" xmlns:svg="http://www.w3.org/2000/svg" id="svg1326" width="59.78281mm" height="59.819042mm" version="1.1" viewBox="0 0 59.78281 59.819042">
    <defs id="defs1320"/>
    <metadata id="metadata1323">
        <rdf:RDF>
            <cc:Work rdf:about="">
                <dc:format>
                    image/svg+xml
                </dc:format>
                <dc:type rdf:resource="http://purl.org/dc/dcmitype/StillImage"/>
                <dc:title/>
            </cc:Work>
        </rdf:RDF>
    </metadata>
    <g id="layer1" transform="translate(-49.483594,-23.673813)">
        <g id="g9214" style="stroke:#000000;stroke-width:0.08863626;stroke-miterlimit:4;stroke-dasharray:none;stroke-opacity:1" transform="matrix(1.1278647,0,0,1.1285482,79.375,53.583333)">
            <g id="g9176" style="stroke:#000000;stroke-width:0.08863626;stroke-miterlimit:4;stroke-dasharray:none;stroke-opacity:1">
                <path id="path9152" d="M 4.0536922e-8,26.458334 A 1.5128598,26.458334 0 0 1 -1.310175,13.229167 a 1.5128598,26.458334 0 0 1 0,-26.458334 A 1.5128598,26.458334 0 0 1 2.9675215e-8,-26.458334" style="fill:none;stroke:#000000;stroke-width:0.08863626;stroke-miterlimit:4;stroke-dasharray:none;stroke-opacity:1" transform="rotate(2.2968093)"/>
                <path id="path9154" d="M 1.8909609e-7,26.458334 A 7.057168,26.458334 0 0 1 -6.1116867,13.229167 a 7.057168,26.458334 0 0 1 -1e-7,-26.458334 A 7.057168,26.458334 0 0 1 1.3842854e-7,-26.458334" style="fill:none;stroke:#000000;stroke-width:0.08863626;stroke-miterlimit:4;stroke-dasharray:none;stroke-opacity:1" transform="rotate(11.172037)"/>
                <path id="path9156" d="M 3.247705e-7,26.458334 A 12.12061,26.458334 0 0 1 -10.496756,13.229167 a 12.12061,26.458334 0 0 1 0,-26.458334 A 12.12061,26.458334 0 0 1 2.3774953e-7,-26.458334" style="fill:none;stroke:#000000;stroke-width:0.08863626;stroke-miterlimit:4;stroke-dasharray:none;stroke-opacity:1" transform="rotate(21.150567)"/>
                <path id="path9158" d="M 4.3831418e-7,26.458334 A 16.358122,26.458334 0 0 1 -14.166549,13.229167 a 16.358122,26.458334 0 0 1 0,-26.458334 A 16.358122,26.458334 0 0 1 3.2086963e-7,-26.458334" style="fill:none;stroke:#000000;stroke-width:0.08863626;stroke-miterlimit:4;stroke-dasharray:none;stroke-opacity:1" transform="rotate(33.417795)"/>
                <path id="path9160" d="M 5.2198926e-7,26.458334 A 19.480921,26.458334 0 0 1 -16.870972,13.229167 a 19.480921,26.458334 0 0 1 0,-26.458334 A 19.480921,26.458334 0 0 1 3.821243e-7,-26.458334" style="fill:none;stroke:#000000;stroke-width:0.08863626;stroke-miterlimit:4;stroke-dasharray:none;stroke-opacity:1" transform="rotate(49.624295)"/>
                <path id="path9162" d="M 5.7009346e-7,26.458334 A 21.276196,26.458334 0 0 1 -18.425726,13.229167 a 21.276196,26.458334 0 0 1 0,-26.458334 A 21.276196,26.458334 0 0 1 4.1733917e-7,-26.458334" style="fill:none;stroke:#000000;stroke-width:0.08863626;stroke-miterlimit:4;stroke-dasharray:none;stroke-opacity:1" transform="rotate(71.278905)"/>
                <path id="path9164" d="M 4.2411445e-7,-26.458334 A 21.621603,26.458334 0 0 1 21.621603,-9.4979958e-8 21.621603,26.458334 0 0 1 5.7934863e-7,26.458334" style="fill:none;stroke:#000000;stroke-width:0.08863626;stroke-miterlimit:4;stroke-dasharray:none;stroke-opacity:1" transform="rotate(-83.049162)"/>
                <path id="path9166" d="M 4.0198834e-7,-26.458334 A 20.493601,26.458334 0 0 1 20.493601,-9.4979958e-8 20.493601,26.458334 0 0 1 5.4912393e-7,26.458334" style="fill:none;stroke:#000000;stroke-width:0.08863626;stroke-miterlimit:4;stroke-dasharray:none;stroke-opacity:1" transform="rotate(-59.022896)"/>
                <path id="path9168" d="M 3.524687e-7,-26.458334 A 17.969061,26.458334 0 0 1 17.969061,-9.4979958e-8 17.969061,26.458334 0 0 1 4.8147914e-7,26.458334" style="fill:none;stroke:#000000;stroke-width:0.08863626;stroke-miterlimit:4;stroke-dasharray:none;stroke-opacity:1" transform="rotate(-40.376577)"/>
                <path id="path9170" d="M 2.7893026e-7,-26.458334 A 14.220028,26.458334 0 0 1 14.220028,-9.4979958e-8 14.220028,26.458334 0 0 1 3.8102419e-7,26.458334" style="fill:none;stroke:#000000;stroke-width:0.08863626;stroke-miterlimit:4;stroke-dasharray:none;stroke-opacity:1" transform="rotate(-26.500954)"/>
                <path id="path9172" d="M 1.8638452e-7,-26.458334 A 9.5019922,26.458334 0 0 1 9.5019922,-9.4979958e-8 9.5019922,26.458334 0 0 1 2.5460491e-7,26.458334" style="fill:none;stroke:#000000;stroke-width:0.08863626;stroke-miterlimit:4;stroke-dasharray:none;stroke-opacity:1" transform="rotate(-15.629065)"/>
                <path id="path9174" d="M 8.1138326e-8,-26.458334 A 4.1364794,26.458334 0 0 1 4.1364794,-9.4979958e-8 4.1364794,26.458334 0 0 1 1.1083654e-7,26.458334" style="fill:none;stroke:#000000;stroke-width:0.08863626;stroke-miterlimit:4;stroke-dasharray:none;stroke-opacity:1" transform="rotate(-6.3617461)"/>
            </g>
            <g id="g9210" style="stroke:#000000;stroke-width:0.08863626;stroke-miterlimit:4;stroke-dasharray:none;stroke-opacity:1">
                <path id="path9178" d="m 4.1491648,26.131939 a 15.551818,8.9211569 0 0 1 -8.2983288,0" style="fill:none;stroke:#000000;stroke-width:0.08863626;stroke-miterlimit:4;stroke-dasharray:none;stroke-opacity:1"/>
                <path id="path9180" d="M 13.356996,22.84001 A 18.708866,10.731965 0 0 1 3.3580483e-8,26.057372 18.708866,10.731965 0 0 1 -13.356996,22.84001" style="fill:none;stroke:#000000;stroke-width:0.08863626;stroke-miterlimit:4;stroke-dasharray:none;stroke-opacity:1"/>
                <path id="path9182" d="M 18.428324,18.985773 A 21.405241,12.278542 0 0 1 1.454464e-7,25.017845 21.405241,12.278542 0 0 1 -18.428324,18.985773" style="fill:none;stroke:#000000;stroke-width:0.08863626;stroke-miterlimit:4;stroke-dasharray:none;stroke-opacity:1"/>
                <path id="path9184" d="M 22.023127,14.664096 A 23.574547,13.522805 0 0 1 -3.1130433e-7,23.362322 23.574547,13.522805 0 0 1 -22.023127,14.664096" style="fill:none;stroke:#000000;stroke-width:0.08863626;stroke-miterlimit:4;stroke-dasharray:none;stroke-opacity:1"/>
                <path id="path9186" d="M 24.503472,9.9813717 A 25.16337,14.434116 0 0 1 5.4843304e-7,21.131565 25.16337,14.434116 0 0 1 -24.503472,9.9813723" style="fill:none;stroke:#000000;stroke-width:0.08863626;stroke-miterlimit:4;stroke-dasharray:none;stroke-opacity:1"/>
                <path id="path9188" d="M 25.971385,5.0528911 A 26.132587,14.990036 0 0 1 -3.4508351e-7,18.380502 26.132587,14.990036 0 0 1 -25.971385,5.0528907" style="fill:none;stroke:#000000;stroke-width:0.08863626;stroke-miterlimit:4;stroke-dasharray:none;stroke-opacity:1"/>
                <path id="path9190" d="m 26.458334,0 a 26.458334,15.176876 0 0 1 -13.229167,13.14356 26.458334,15.176876 0 0 1 -26.458335,0 A 26.458334,15.176876 0 0 1 -26.458334,-7.0436195e-7" style="fill:none;stroke:#000000;stroke-width:0.08863626;stroke-miterlimit:4;stroke-dasharray:none;stroke-opacity:1"/>
                <path id="path9192" d="M 25.971385,-5.0528915 A 26.132587,14.990036 0 0 1 13.895489,9.304801 a 26.132587,14.990036 0 0 1 -27.790976,5e-7 26.132587,14.990036 0 0 1 -12.075898,-14.3576921" style="fill:none;stroke:#000000;stroke-width:0.08863626;stroke-miterlimit:4;stroke-dasharray:none;stroke-opacity:1"/>
                <path id="path9194" d="m 24.503472,-9.9813716 a 25.16337,14.434116 0 0 1 -10.292967,15.1960513 25.16337,14.434116 0 0 1 -28.421011,-3e-7 25.16337,14.434116 0 0 1 -10.292966,-15.1960516" style="fill:none;stroke:#000000;stroke-width:0.08863626;stroke-miterlimit:4;stroke-dasharray:none;stroke-opacity:1"/>
                <path id="path9196" d="M 22.023127,-14.664096 A 23.574547,13.522805 0 0 1 14.1768,0.96490518 a 23.574547,13.522805 0 0 1 -28.353599,4.9e-7 23.574547,13.522805 0 0 1 -7.846328,-15.62900167" style="fill:none;stroke:#000000;stroke-width:0.08863626;stroke-miterlimit:4;stroke-dasharray:none;stroke-opacity:1"/>
                <path id="path9198" d="m 18.428324,-18.985773 a 21.405241,12.278542 0 0 1 -4.614115,15.6257248 21.405241,12.278542 0 0 1 -27.628419,-3e-7 21.405241,12.278542 0 0 1 -4.614114,-15.6257245" style="fill:none;stroke:#000000;stroke-width:0.08863626;stroke-miterlimit:4;stroke-dasharray:none;stroke-opacity:1"/>
                <path id="path9200" d="m 13.356996,-22.84001 a 18.708866,10.731965 0 0 1 -0.170718,15.1277706 18.708866,10.731965 0 0 1 -26.372557,-3e-7 18.708866,10.731965 0 0 1 -0.170717,-15.1277703" style="fill:none;stroke:#000000;stroke-width:0.08863626;stroke-miterlimit:4;stroke-dasharray:none;stroke-opacity:1"/>
                <path id="path9202" d="M 4.1491647,-26.131939 A 15.551818,8.9211569 0 0 1 15.410247,-16.333149 15.551818,8.9211569 0 0 1 -3.0505373e-7,-8.6129904 15.551818,8.9211569 0 0 1 -15.410247,-16.33315 15.551818,8.9211569 0 0 1 -4.1491641,-26.131939" style="fill:none;stroke:#000000;stroke-width:0.08863626;stroke-miterlimit:4;stroke-dasharray:none;stroke-opacity:1"/>
                <ellipse id="path9204" cx="0" cy="-19.311138" rx="12.011832" ry="6.8907037" style="fill:none;stroke:#000000;stroke-width:0.08863626;stroke-miterlimit:4;stroke-dasharray:none;stroke-opacity:1"/>
                <ellipse id="path9206" cx="0" cy="-20.612627" rx="8.176075" ry="4.6906037" style="fill:none;stroke:#000000;stroke-width:0.08863626;stroke-miterlimit:4;stroke-dasharray:none;stroke-opacity:1"/>
                <ellipse id="path9208" cx="0" cy="-21.406563" rx="4.1389952" ry="2.37503" style="fill:none;stroke:#000000;stroke-width:0.08863626;stroke-miterlimit:4;stroke-dasharray:none;stroke-opacity:1"/>
            </g>
            <circle id="path9212" cx="0" cy="0" r="26.458334" style="fill:none;stroke:#000000;stroke-width:0.08863626;stroke-miterlimit:4;stroke-dasharray:none;stroke-opacity:1"/>
        </g>
    </g>
</svg>
